{"glyphs":{"0":{"ha":741,"x_min":15,"x_max":760,"o":"m 406 958 l 406 798 q 572 460 566 783 q 408 109 568 140 l 408 -54 q 759 460 767 -35 q 406 958 762 971 m 355 111 q 199 452 203 134 q 354 798 212 774 l 354 956 q 15 452 15 961 q 355 -51 16 -55 l 355 111 z "},"1":{"ha":548,"x_min":103,"x_max":478,"o":"m 478 949 l 354 949 q 103 789 324 817 l 103 671 l 300 671 l 300 -56 l 478 -56 l 478 949 z "},"2":{"ha":777,"x_min":67,"x_max":739,"o":"m 396 957 q 83 597 91 909 l 263 597 q 396 810 256 771 l 396 957 m 454 248 l 600 393 q 739 698 753 522 q 454 959 726 911 l 454 812 q 564 657 553 772 q 496 508 562 588 l 454 463 l 454 248 m 734 124 l 454 124 l 454 -35 l 734 -35 l 734 124 m 396 122 l 313 122 q 396 224 350 189 l 396 429 q 266 304 394 422 q 68 -37 56 140 l 396 -37 l 396 122 z "},"3":{"ha":799,"x_min":55,"x_max":740,"o":"m 358 958 q 68 625 93 912 l 242 625 q 358 817 235 770 l 358 958 m 55 270 q 360 -54 63 -30 l 360 79 q 234 270 241 111 l 55 270 m 425 -55 q 740 241 722 -50 q 603 492 749 425 q 713 711 717 543 q 422 958 689 937 l 422 817 q 538 667 535 795 q 351 530 524 513 l 351 412 q 588 255 589 437 q 425 79 579 98 l 425 -55 z "},"4":{"ha":770,"x_min":37,"x_max":713,"o":"m 433 -33 l 614 -33 l 614 163 l 713 163 l 713 311 l 614 311 l 614 955 l 433 955 l 433 -33 m 381 935 l 37 316 l 37 163 l 381 163 l 381 311 l 214 311 l 381 655 l 381 935 z "},"5":{"ha":779,"x_min":61,"x_max":721,"o":"m 61 245 q 365 -53 84 -31 l 365 96 q 240 245 259 117 l 61 245 m 422 -53 q 721 290 715 -31 q 476 633 730 583 l 420 633 l 420 491 q 539 308 546 484 q 422 96 541 119 l 422 -53 m 363 633 q 254 564 292 618 l 272 789 l 361 789 l 361 944 l 135 944 l 79 416 l 255 416 q 363 491 286 479 l 363 633 m 418 789 l 685 789 l 685 944 l 418 944 l 418 789 z "},"6":{"ha":799,"x_min":92,"x_max":763,"o":"m 456 -60 q 763 304 758 -49 q 503 600 764 566 l 452 603 l 454 455 q 591 286 581 441 q 456 81 598 109 l 456 -60 m 748 713 q 455 954 734 951 l 455 812 q 573 713 559 805 l 748 713 m 395 954 q 111 684 184 945 q 109 166 75 414 q 395 -60 173 -61 l 395 81 q 264 286 270 115 q 393 453 274 441 l 393 604 q 262 547 321 606 q 288 728 254 630 q 395 812 332 810 l 395 954 z "},"7":{"ha":751,"x_min":56,"x_max":695,"o":"m 56 958 l 56 798 l 680 798 l 695 819 l 695 958 l 56 958 m 488 749 q 300 406 363 572 q 187 -37 222 238 l 370 -37 q 472 402 384 207 q 654 749 549 607 l 488 749 z "},"8":{"ha":774,"x_min":45,"x_max":731,"o":"m 361 425 l 361 543 q 233 665 242 553 q 358 818 234 795 l 358 956 q 66 687 85 927 q 188 490 67 532 q 45 256 43 451 q 358 -59 41 -50 l 358 87 q 230 273 227 113 q 361 425 238 414 l 361 425 m 416 -59 q 731 256 717 -52 q 587 490 723 462 q 711 687 715 545 q 417 958 701 918 l 417 815 q 543 665 550 795 q 418 543 533 553 l 418 425 q 545 273 537 414 q 416 87 543 109 l 416 -59 z "},"9":{"ha":798,"x_min":54,"x_max":746,"o":"m 359 958 q 54 601 63 939 q 315 305 56 294 q 358 304 334 304 l 358 452 q 227 618 229 446 q 359 818 229 794 l 359 958 m 64 205 q 358 -51 87 -31 l 358 89 q 247 205 273 127 l 64 205 m 422 -51 q 724 211 674 -38 q 726 715 768 464 q 422 957 661 939 l 422 817 q 555 618 555 796 q 422 452 544 463 l 422 304 q 547 374 490 311 q 534 210 568 309 q 422 89 494 122 l 422 -51 z "}," ":{"ha":669,"x_min":0,"x_max":0,"o":""},"!":{"ha":460,"x_min":151,"x_max":311,"o":"m 194 256 l 263 256 l 311 642 l 311 901 l 151 901 l 151 642 l 194 256 m 151 180 l 151 1 l 311 1 l 311 180 l 151 180 z "},"\"":{"ha":511,"x_min":100,"x_max":425,"o":"m 100 901 l 100 751 l 136 602 l 183 602 l 221 751 l 221 901 l 100 901 m 304 901 l 304 751 l 340 602 l 388 602 l 425 751 l 425 901 l 304 901 z "},"#":{"ha":1050,"x_min":106,"x_max":975,"o":"m 416 901 l 355 650 l 171 650 l 171 510 l 324 510 l 285 355 l 106 355 l 106 213 l 250 213 l 197 1 l 363 1 l 416 213 l 576 213 l 525 1 l 693 1 l 745 213 l 930 213 l 930 355 l 783 355 l 819 510 l 975 510 l 975 650 l 850 650 l 911 901 l 745 901 l 684 650 l 524 650 l 585 901 l 416 901 m 490 510 l 654 510 l 613 355 l 452 355 l 490 510 z "},"$":{"ha":836,"x_min":95,"x_max":774,"o":"m 750 644 q 477 902 761 865 l 477 968 l 389 968 l 389 902 q 122 647 194 924 q 389 410 126 472 l 389 141 q 273 289 282 161 l 98 289 q 389 8 127 24 l 389 -118 l 477 -118 l 477 11 q 761 285 736 -18 q 477 532 747 465 l 477 776 q 581 644 583 779 l 750 644 m 477 380 q 589 248 598 350 q 477 141 574 149 l 477 380 m 389 557 q 288 662 290 589 q 389 779 296 766 l 389 557 z "},"%":{"ha":1191,"x_min":104,"x_max":1120,"o":"m 423 1 l 906 911 l 812 911 l 330 1 l 423 1 m 337 906 l 337 779 q 426 675 419 773 q 337 572 419 581 l 337 444 q 545 675 534 452 q 352 905 545 888 l 337 906 m 308 574 q 224 675 225 577 q 308 778 223 772 l 307 906 q 104 675 114 895 q 308 446 109 452 l 308 574 m 914 467 l 914 342 q 1001 239 994 336 q 914 134 994 141 l 914 7 q 1120 239 1107 16 q 936 466 1120 450 l 914 467 m 885 134 q 799 239 804 135 q 884 342 804 336 l 884 467 q 680 239 688 460 q 885 9 681 15 l 885 134 z "},"&":{"ha":1004,"x_min":77,"x_max":924,"o":"m 705 452 q 661 312 719 377 l 524 472 q 674 675 627 514 q 461 873 652 878 q 206 684 252 901 q 305 483 199 556 q 134 339 179 408 q 167 68 58 193 q 419 -20 285 -27 q 654 76 562 -7 l 716 1 l 924 1 l 761 194 q 856 452 844 277 l 705 452 m 444 566 q 378 651 403 593 q 450 741 361 761 q 521 655 553 728 q 444 566 502 594 l 444 566 m 562 184 q 326 140 433 73 q 263 248 259 183 q 388 381 282 331 l 562 184 z "},"'":{"ha":404,"x_min":130,"x_max":297,"o":"m 130 901 l 130 754 l 229 754 q 130 651 240 684 l 130 600 q 294 764 278 598 l 294 901 l 130 901 z "},"(":{"ha":511,"x_min":106,"x_max":439,"o":"m 311 1039 q 106 433 144 848 q 311 -175 133 61 l 439 -175 q 262 433 302 7 q 439 1039 243 680 l 311 1039 z "},")":{"ha":500,"x_min":76,"x_max":411,"o":"m 76 1039 q 255 433 274 680 q 76 -175 214 7 l 206 -175 q 411 433 382 61 q 206 1039 372 848 l 76 1039 z "},"*":{"ha":724,"x_min":98,"x_max":644,"o":"m 255 426 l 365 557 l 487 426 l 593 500 l 465 635 l 644 688 l 601 784 l 437 731 l 437 901 l 307 901 l 307 731 l 138 784 l 98 688 l 275 635 l 149 500 l 255 426 z "},"+":{"ha":857,"x_min":98,"x_max":773,"o":"m 350 811 l 350 551 l 98 551 l 98 391 l 350 391 l 350 132 l 518 132 l 518 391 l 773 391 l 773 551 l 518 551 l 518 811 l 350 811 z "},",":{"ha":361,"x_min":99,"x_max":274,"o":"m 99 138 l 99 1 l 206 1 q 107 -102 214 -71 l 107 -153 q 271 12 252 -153 l 271 138 l 99 138 z "},"-":{"ha":524,"x_min":100,"x_max":442,"o":"m 100 431 l 100 335 l 442 335 l 442 431 l 100 431 z "},"‐":{"ha":524,"x_min":100,"x_max":442,"o":"m 100 431 l 100 335 l 442 335 l 442 431 l 100 431 z "},".":{"ha":369,"x_min":98,"x_max":275,"o":"m 98 1 l 275 1 l 275 133 l 98 133 l 98 1 z "},"/":{"ha":587,"x_min":20,"x_max":589,"o":"m 458 1143 l 20 -94 l 152 -94 l 589 1143 l 458 1143 z "},":":{"ha":373,"x_min":100,"x_max":279,"o":"m 100 644 l 100 465 l 279 465 l 279 644 l 100 644 m 100 183 l 100 1 l 279 1 l 279 183 l 100 183 z "},";":{"ha":362,"x_min":99,"x_max":274,"o":"m 102 643 l 102 468 l 274 468 l 274 643 l 102 643 m 99 161 l 99 1 l 206 1 q 107 -123 220 -62 l 107 -175 q 271 16 255 -130 l 271 161 l 99 161 z "},"<":{"ha":802,"x_min":100,"x_max":742,"o":"m 100 254 l 742 3 l 742 182 l 330 336 l 742 491 l 742 670 l 100 419 l 100 254 z "},"=":{"ha":833,"x_min":98,"x_max":746,"o":"m 98 488 l 98 388 l 746 388 l 746 488 l 98 488 m 98 290 l 98 190 l 746 190 l 746 290 l 98 290 z "},">":{"ha":803,"x_min":75,"x_max":716,"o":"m 716 419 l 75 670 l 75 491 l 487 336 l 75 182 l 75 3 l 716 254 l 716 419 z "},"?":{"ha":754,"x_min":103,"x_max":674,"o":"m 454 236 q 532 378 445 308 q 674 628 661 430 q 404 868 667 822 q 103 564 132 895 l 258 564 q 373 718 254 699 q 505 608 491 726 q 429 468 513 541 q 312 236 311 393 l 454 236 m 304 1 l 477 1 l 477 172 l 304 172 l 304 1 z "},"@":{"ha":1271,"x_min":55,"x_max":1210,"o":"m 826 681 l 808 614 q 709 688 784 667 q 479 621 605 707 q 349 411 378 544 q 551 182 339 186 q 738 260 628 183 q 1010 210 829 133 q 1210 509 1181 292 q 652 962 1229 930 q 56 387 45 966 q 519 -41 109 -5 q 922 23 765 -42 l 886 110 q 511 79 682 46 q 179 426 219 102 q 665 872 163 815 q 1096 500 1107 863 q 948 285 1088 350 q 837 355 844 228 l 940 681 l 826 681 m 472 290 q 488 511 399 385 q 718 571 612 639 q 694 339 812 502 q 472 290 572 217 l 472 290 z "},"A":{"ha":910,"x_min":41,"x_max":905,"o":"m 593 864 l 507 614 l 599 301 l 422 301 l 374 146 l 646 146 l 709 -37 l 905 -37 l 593 864 m 556 957 l 359 957 l 41 -37 l 237 -37 l 556 957 z "},"B":{"ha":833,"x_min":47,"x_max":813,"o":"m 238 955 l 47 955 l 47 -33 l 238 -33 l 238 955 m 309 404 l 490 404 q 631 267 625 411 q 505 120 622 117 l 309 120 l 309 -35 l 488 -35 q 811 224 779 -35 q 699 496 829 416 q 785 690 787 552 q 480 953 779 942 l 309 953 l 309 798 l 511 798 q 605 670 608 795 q 514 559 590 553 l 309 559 l 309 404 z "},"C":{"ha":903,"x_min":31,"x_max":891,"o":"m 703 319 q 521 98 694 142 l 521 -56 q 891 319 858 -50 l 703 319 m 431 98 q 219 475 210 129 q 428 806 225 784 l 428 963 q 32 457 24 947 q 432 -56 24 -56 l 431 98 m 519 807 q 707 604 690 781 l 891 604 q 519 962 856 928 l 519 807 z "},"D":{"ha":869,"x_min":41,"x_max":861,"o":"m 41 -41 l 235 -41 l 235 948 l 41 948 l 41 -41 m 315 -43 l 505 -43 q 861 481 863 -45 q 518 946 835 913 l 315 946 l 315 791 l 446 791 q 666 463 660 753 q 431 112 665 119 l 315 112 l 315 -43 z "},"E":{"ha":781,"x_min":34,"x_max":804,"o":"m 297 -25 l 804 -26 l 804 129 l 297 130 l 297 -25 m 296 395 l 745 395 l 745 549 l 296 549 l 296 395 m 34 935 l 34 -26 l 228 -26 l 228 935 l 34 935 m 301 780 l 782 780 l 782 935 l 301 935 l 301 780 z "},"F":{"ha":719,"x_min":53,"x_max":700,"o":"m 53 935 l 53 -26 l 241 -26 l 241 388 l 646 388 l 646 541 l 241 541 l 241 783 l 700 783 l 700 935 l 53 935 z "},"G":{"ha":952,"x_min":41,"x_max":901,"o":"m 525 336 l 739 336 q 492 115 720 133 l 492 -34 q 762 104 646 -38 l 762 -19 l 901 -19 l 901 488 l 525 488 l 525 336 m 452 115 q 227 452 227 130 q 452 791 227 764 l 452 945 q 43 517 92 924 q 452 -34 12 -16 l 452 115 m 492 791 q 726 614 699 796 l 901 614 q 492 946 876 937 l 492 791 z "},"H":{"ha":873,"x_min":64,"x_max":826,"o":"m 64 -12 l 259 -12 l 259 419 l 633 419 l 633 -12 l 826 -12 l 826 935 l 633 935 l 633 572 l 259 572 l 259 935 l 64 935 l 64 -12 z "},"I":{"ha":345,"x_min":83,"x_max":271,"o":"m 271 928 l 83 928 l 83 -12 l 271 -12 l 271 928 z "},"J":{"ha":656,"x_min":37,"x_max":614,"o":"m 426 928 l 426 231 q 331 119 425 127 q 225 232 235 113 l 225 330 l 38 330 l 38 235 q 163 -5 33 73 q 439 -15 307 -56 q 614 263 614 66 l 614 928 l 426 928 z "},"K":{"ha":848,"x_min":60,"x_max":837,"o":"m 60 -12 l 240 -12 l 240 928 l 60 928 l 60 -12 m 274 304 l 335 393 l 618 -12 l 837 -12 l 452 514 l 802 928 l 586 928 l 274 522 l 274 304 z "},"L":{"ha":689,"x_min":49,"x_max":670,"o":"m 49 928 l 49 -12 l 670 -12 l 670 142 l 235 142 l 235 928 l 49 928 z "},"M":{"ha":1021,"x_min":64,"x_max":981,"o":"m 260 928 l 64 928 l 64 -12 l 259 -12 l 260 928 m 620 -12 l 754 544 l 754 928 l 699 928 l 524 209 l 347 928 l 294 928 l 294 545 l 426 -12 l 620 -12 m 788 -12 l 981 -12 l 981 928 l 788 928 l 788 -12 z "},"N":{"ha":861,"x_min":58,"x_max":821,"o":"m 58 928 l 58 -12 l 251 -12 l 251 928 l 58 928 m 292 572 l 587 42 l 587 338 l 292 873 l 292 572 m 628 -12 l 821 -12 l 821 928 l 628 928 l 628 -12 z "},"O":{"ha":993,"x_min":57,"x_max":963,"o":"m 542 948 l 542 783 q 777 445 766 761 q 543 122 766 141 l 543 -39 q 963 449 945 -5 q 542 948 945 913 m 502 122 q 244 445 254 141 q 503 783 254 761 l 503 949 q 57 449 75 913 q 502 -39 75 -5 l 502 122 z "},"P":{"ha":793,"x_min":64,"x_max":766,"o":"m 64 -12 l 252 -12 l 252 928 l 64 928 l 64 -12 m 294 323 l 475 323 q 766 627 759 319 q 490 928 777 909 l 293 928 l 293 774 l 463 774 q 589 625 593 770 q 477 477 585 486 l 294 477 l 294 323 z "},"Q":{"ha":964,"x_min":45,"x_max":949,"o":"m 736 31 l 854 -71 l 949 28 l 844 121 q 949 463 948 235 q 533 948 930 928 l 533 783 q 774 458 766 767 q 711 237 771 304 l 610 327 l 510 229 l 600 148 q 532 128 570 130 l 533 -33 q 736 31 646 -35 l 736 31 m 491 948 q 45 463 62 934 q 491 -33 56 -7 l 491 128 q 232 458 235 139 q 491 783 241 770 l 491 948 z "},"R":{"ha":802,"x_min":53,"x_max":806,"o":"m 53 -12 l 239 -12 l 239 928 l 53 928 l 53 -12 m 281 366 l 357 366 q 521 166 483 330 q 593 -12 559 3 l 806 -12 l 792 22 q 730 183 761 43 q 610 401 699 323 q 783 674 780 452 q 553 928 774 926 l 280 928 l 280 772 l 490 772 q 605 656 610 766 q 494 525 597 519 l 281 525 l 281 366 z "},"S":{"ha":807,"x_min":45,"x_max":779,"o":"m 408 117 q 225 277 262 119 l 45 277 q 408 -36 53 -32 l 408 117 m 448 391 l 498 378 q 604 247 594 358 q 448 117 602 142 l 448 -36 q 776 208 758 -16 q 662 494 798 421 q 448 560 524 552 l 448 391 m 759 647 q 448 953 761 922 l 448 803 q 585 647 571 789 l 759 647 m 408 953 q 62 686 90 949 q 225 434 41 490 q 408 398 337 399 l 408 567 l 335 578 q 233 685 233 591 q 408 803 244 789 l 408 953 z "},"T":{"ha":798,"x_min":39,"x_max":768,"o":"m 39 928 l 39 772 l 315 772 l 315 -12 l 503 -12 l 503 772 l 768 772 l 768 928 l 39 928 z "},"U":{"ha":868,"x_min":63,"x_max":819,"o":"m 624 928 l 624 326 q 465 125 637 126 l 465 -20 q 639 4 560 -23 q 819 278 798 80 l 819 928 l 624 928 m 425 125 q 262 326 277 118 l 262 928 l 64 928 l 64 289 q 263 0 61 100 q 425 -22 325 -21 l 425 125 z "},"V":{"ha":856,"x_min":39,"x_max":845,"o":"m 650 928 l 471 291 l 549 58 l 845 928 l 650 928 m 236 928 l 39 928 l 351 -12 l 525 -12 l 236 928 z "},"W":{"ha":1208,"x_min":37,"x_max":1192,"o":"m 37 928 l 292 -12 l 463 -12 l 236 928 l 37 928 m 484 86 l 666 928 l 514 928 l 414 367 l 484 86 m 641 618 l 766 -12 l 924 -12 l 707 928 l 641 618 m 953 60 l 1192 928 l 993 928 l 876 357 l 953 60 z "},"X":{"ha":879,"x_min":50,"x_max":848,"o":"m 64 928 l 342 458 l 50 -12 l 273 -12 l 449 304 l 624 -12 l 848 -12 l 555 467 l 837 928 l 617 928 l 449 618 l 288 928 l 64 928 z "},"Y":{"ha":860,"x_min":39,"x_max":852,"o":"m 633 928 l 450 544 l 258 928 l 39 928 l 351 365 l 351 -12 l 547 -12 l 547 365 l 852 928 l 633 928 z "},"Z":{"ha":814,"x_min":45,"x_max":785,"o":"m 68 928 l 68 773 l 547 773 l 45 142 l 45 -12 l 785 -12 l 785 142 l 281 142 l 785 773 l 785 928 l 68 928 z "},"[":{"ha":452,"x_min":98,"x_max":388,"o":"m 388 888 l 388 1013 l 98 1013 l 98 -155 l 388 -155 l 388 -24 l 254 -24 l 254 888 l 388 888 z "},"\\":{"ha":647,"x_min":41,"x_max":625,"o":"m 41 1145 l 479 -83 l 625 -83 l 184 1145 l 41 1145 z "},"]":{"ha":452,"x_min":71,"x_max":358,"o":"m 71 890 l 201 890 l 201 -22 l 71 -22 l 71 -152 l 358 -152 l 358 1013 l 71 1013 l 71 890 z "},"^":{"ha":886,"x_min":100,"x_max":800,"o":"m 100 582 l 271 582 l 449 806 l 628 582 l 800 582 l 540 901 l 351 901 l 100 582 z "},"_":{"ha":758,"x_min":26,"x_max":750,"o":"m 750 -140 l 26 -140 l 26 -236 l 750 -236 l 750 -140 z "},"`":{"ha":419,"x_min":130,"x_max":294,"o":"m 293 601 l 293 743 l 195 743 q 294 846 199 827 l 294 898 q 130 732 156 910 l 130 601 l 293 601 z "},"a":{"ha":745,"x_min":43,"x_max":712,"o":"m 361 704 q 66 461 125 726 l 244 461 q 361 571 239 566 l 361 704 m 491 274 q 391 124 475 145 l 391 -22 q 494 69 474 1 q 513 1 492 30 l 712 1 l 712 26 q 673 107 671 61 l 673 481 q 395 704 694 693 l 395 571 q 495 509 486 578 q 393 413 509 445 l 394 293 l 491 321 l 491 274 m 359 117 q 232 176 262 102 q 311 282 225 283 l 361 286 l 360 406 l 255 395 q 43 183 84 397 q 300 -26 44 -26 l 359 -24 l 359 117 z "},"b":{"ha":734,"x_min":42,"x_max":689,"o":"m 412 701 q 251 628 312 705 l 251 441 q 363 545 275 532 l 363 545 q 513 339 503 532 q 363 129 503 142 q 253 205 301 140 l 253 58 q 412 -5 307 -1 q 689 342 673 7 q 412 701 673 674 l 412 701 m 217 901 l 42 901 l 42 1 l 217 1 l 217 901 z "},"c":{"ha":708,"x_min":54,"x_max":673,"o":"m 673 438 q 370 703 678 687 q 54 369 91 705 q 362 -20 49 -15 q 673 245 632 -41 l 502 245 q 380 126 484 140 q 235 349 229 134 q 374 552 243 553 q 502 438 500 528 l 673 438 z "},"d":{"ha":720,"x_min":50,"x_max":699,"o":"m 328 701 q 50 342 59 688 q 328 -12 52 9 q 490 53 436 -9 l 488 251 q 374 129 469 136 q 227 339 236 142 q 374 545 236 532 l 374 545 q 490 422 478 527 l 490 635 q 328 701 452 701 l 328 701 m 524 1 l 699 1 l 699 901 l 524 901 l 524 1 z "},"e":{"ha":718,"x_min":47,"x_max":686,"o":"m 685 293 q 380 702 706 694 l 380 556 q 502 410 500 554 l 386 410 l 386 293 l 685 293 m 352 410 l 228 410 q 351 554 248 541 l 351 700 q 47 345 79 699 q 352 -14 53 -11 l 352 125 q 228 293 221 148 l 352 293 l 352 410 m 386 -14 q 677 201 601 -28 l 503 201 q 386 125 480 123 l 386 -14 z "},"f":{"ha":468,"x_min":50,"x_max":429,"o":"m 50 566 l 146 566 l 146 1 l 324 1 l 324 566 l 429 566 l 429 682 l 324 682 l 324 730 q 362 772 324 770 l 423 772 l 423 901 l 312 901 q 146 739 164 924 l 146 682 l 50 682 l 50 566 z "},"g":{"ha":732,"x_min":53,"x_max":693,"o":"m 330 160 q 214 354 225 172 q 329 535 227 513 l 330 690 q 53 349 62 687 q 330 22 57 38 l 330 160 m 526 681 l 526 579 q 366 690 491 685 l 366 534 q 528 354 519 524 q 370 160 519 172 l 370 22 q 526 117 468 34 l 526 -8 q 370 -113 509 -100 l 370 -225 q 693 -3 649 -216 l 693 681 l 526 681 m 330 -111 q 250 -16 275 -114 l 62 -16 q 330 -228 72 -213 l 330 -111 z "},"h":{"ha":684,"x_min":52,"x_max":649,"o":"m 228 901 l 52 901 l 52 1 l 228 1 l 228 901 m 269 442 q 326 528 281 511 q 472 438 469 567 l 472 1 l 648 1 l 648 490 q 425 682 659 662 q 269 632 311 688 l 269 442 z "},"i":{"ha":286,"x_min":62,"x_max":236,"o":"m 62 747 l 236 747 l 236 901 l 62 901 l 62 747 m 62 1 l 236 1 l 236 681 l 62 681 l 62 1 z "},"j":{"ha":305,"x_min":3,"x_max":256,"o":"m 80 742 l 256 742 l 256 901 l 80 901 l 80 742 m 80 -14 q 3 -62 77 -58 l 3 -206 q 161 -195 83 -205 q 256 -58 236 -186 l 256 681 l 80 681 l 80 -14 z "},"k":{"ha":631,"x_min":41,"x_max":618,"o":"m 41 901 l 41 1 l 206 1 l 206 901 l 41 901 m 247 247 l 275 290 l 425 1 l 618 1 l 388 416 l 604 682 l 415 682 l 247 448 l 247 247 z "},"l":{"ha":300,"x_min":62,"x_max":237,"o":"m 62 901 l 62 1 l 237 1 l 237 901 l 62 901 z "},"m":{"ha":1050,"x_min":52,"x_max":1027,"o":"m 229 1 l 229 682 l 52 682 l 52 1 l 229 1 m 270 457 q 351 545 279 541 q 450 469 439 548 l 450 1 l 627 1 l 627 426 q 606 595 628 539 q 442 693 574 685 q 270 624 300 694 l 270 457 m 667 460 q 757 547 683 547 q 848 473 844 543 l 848 1 l 1025 1 l 1025 480 q 849 689 1040 656 q 647 623 686 694 q 667 460 669 558 z "},"n":{"ha":669,"x_min":46,"x_max":642,"o":"m 46 1 l 218 1 l 218 682 l 46 682 l 46 1 m 259 464 q 345 552 280 545 q 469 439 475 559 l 469 1 l 642 1 l 642 465 q 401 690 635 667 q 259 623 292 690 l 259 464 z "},"o":{"ha":747,"x_min":43,"x_max":719,"o":"m 361 697 q 43 340 56 686 q 359 -18 31 -7 l 359 126 q 225 340 218 143 q 361 553 233 538 l 361 697 m 393 -18 q 719 340 708 -13 q 395 697 705 686 l 395 552 q 537 340 534 538 q 393 126 528 141 l 393 -18 z "},"p":{"ha":697,"x_min":33,"x_max":680,"o":"m 401 -19 q 680 340 663 7 q 401 694 663 675 q 247 633 290 693 l 248 427 q 354 552 255 544 q 502 345 494 538 q 354 137 494 152 l 354 137 q 245 227 274 130 l 245 41 q 401 -19 300 -23 l 401 -19 m 208 682 l 33 682 l 33 -205 l 208 -205 l 208 682 z "},"q":{"ha":722,"x_min":53,"x_max":700,"o":"m 331 -19 q 491 46 431 -23 l 491 270 q 378 137 467 138 l 378 137 q 231 345 240 152 q 378 552 240 538 q 491 446 475 547 l 491 631 q 331 701 431 705 q 53 340 71 675 q 331 -19 71 7 l 331 -19 m 525 -205 l 700 -205 l 700 682 l 525 682 l 525 -205 z "},"r":{"ha":444,"x_min":54,"x_max":418,"o":"m 54 1 l 221 1 l 221 363 q 292 506 224 468 q 418 517 358 536 l 418 693 q 221 552 290 701 l 221 682 l 54 682 l 54 1 z "},"s":{"ha":673,"x_min":42,"x_max":640,"o":"m 42 205 q 331 -18 52 -16 q 639 218 627 -26 q 513 377 644 326 l 271 454 q 235 514 216 473 q 346 564 260 570 q 458 468 476 538 l 623 468 q 321 696 627 688 q 66 468 76 692 q 209 297 76 345 l 418 239 q 463 167 471 225 q 358 114 449 111 q 212 205 217 114 l 42 205 z "},"t":{"ha":442,"x_min":45,"x_max":418,"o":"m 45 682 l 45 562 l 134 562 l 134 160 q 243 9 134 23 q 415 15 330 -9 l 415 137 l 358 137 q 316 198 313 136 l 316 562 l 418 562 l 418 682 l 316 682 l 316 901 l 134 901 l 134 682 l 45 682 z "},"u":{"ha":684,"x_min":52,"x_max":644,"o":"m 644 681 l 473 681 l 473 1 l 644 1 l 644 681 m 433 190 q 357 126 414 127 q 225 252 221 125 l 225 681 l 52 681 l 52 202 q 259 -23 64 -14 q 433 34 407 -30 l 433 190 z "},"v":{"ha":716,"x_min":35,"x_max":703,"o":"m 35 681 l 275 1 l 463 1 l 225 681 l 35 681 m 483 49 l 703 681 l 513 681 l 403 282 l 483 49 z "},"w":{"ha":1023,"x_min":35,"x_max":1010,"o":"m 35 681 l 229 1 l 414 1 l 221 681 l 35 681 m 427 62 l 524 476 l 632 1 l 803 1 l 616 681 l 429 681 l 355 317 l 427 62 m 817 49 l 1010 681 l 825 681 l 745 331 l 817 49 z "},"x":{"ha":734,"x_min":50,"x_max":700,"o":"m 57 681 l 273 339 l 50 1 l 258 1 l 377 201 l 490 1 l 700 1 l 475 339 l 697 681 l 488 681 l 377 473 l 267 681 l 57 681 z "},"y":{"ha":724,"x_min":35,"x_max":704,"o":"m 35 681 l 269 98 l 346 279 l 225 681 l 35 681 m 366 205 q 239 -52 293 -16 q 129 -69 193 -79 l 129 -206 q 362 -163 300 -213 q 414 -76 396 -126 l 704 681 l 522 681 l 366 205 z "},"z":{"ha":686,"x_min":50,"x_max":646,"o":"m 75 681 l 75 538 l 407 538 l 50 144 l 50 1 l 646 1 l 646 144 l 282 144 l 636 538 l 636 681 l 75 681 z "},"{":{"ha":659,"x_min":106,"x_max":601,"o":"m 106 380 q 250 288 251 382 l 250 27 q 453 -148 248 -127 l 601 -148 l 601 -26 l 537 -26 q 454 39 445 -31 l 454 305 q 285 438 454 429 q 454 583 463 449 l 454 825 q 536 890 460 890 l 601 890 l 601 1013 l 450 1013 q 250 836 282 1025 l 250 578 q 106 496 245 486 l 106 380 z "},"|":{"ha":393,"x_min":153,"x_max":259,"o":"m 259 1013 l 153 1013 l 153 -228 l 259 -228 l 259 1013 z "},"}":{"ha":648,"x_min":72,"x_max":568,"o":"m 568 496 q 423 578 418 483 l 423 836 q 224 1013 389 1025 l 72 1013 l 72 890 l 137 890 q 220 825 214 890 l 220 583 q 389 438 213 449 q 220 305 218 429 l 220 39 q 137 -26 228 -31 l 72 -26 l 72 -148 l 221 -148 q 423 27 423 -127 l 423 288 q 568 380 434 385 l 568 496 z "},"~":{"ha":895,"x_min":98,"x_max":826,"o":"m 209 293 q 350 354 231 403 l 528 282 q 822 431 787 199 l 700 431 q 544 380 704 324 l 387 452 q 98 293 167 541 l 209 293 z "},"Ä":{"ha":694,"x_min":0,"x_max":0,"o":""},"Å":{"ha":694,"x_min":0,"x_max":0,"o":""},"Ç":{"ha":494,"x_min":0,"x_max":0,"o":""},"É":{"ha":439,"x_min":0,"x_max":0,"o":""},"Ñ":{"ha":415,"x_min":0,"x_max":0,"o":""},"Ö":{"ha":472,"x_min":0,"x_max":0,"o":""},"Ü":{"ha":448,"x_min":0,"x_max":0,"o":""},"á":{"ha":250,"x_min":0,"x_max":0,"o":""},"à":{"ha":250,"x_min":0,"x_max":0,"o":""},"â":{"ha":250,"x_min":0,"x_max":0,"o":""},"ä":{"ha":250,"x_min":0,"x_max":0,"o":""},"ã":{"ha":250,"x_min":0,"x_max":0,"o":""},"å":{"ha":250,"x_min":0,"x_max":0,"o":""},"ç":{"ha":346,"x_min":0,"x_max":0,"o":""},"é":{"ha":330,"x_min":0,"x_max":0,"o":""},"è":{"ha":330,"x_min":0,"x_max":0,"o":""},"ê":{"ha":330,"x_min":0,"x_max":0,"o":""},"ë":{"ha":330,"x_min":0,"x_max":0,"o":""},"í":{"ha":159,"x_min":0,"x_max":0,"o":""},"ì":{"ha":159,"x_min":0,"x_max":0,"o":""},"î":{"ha":159,"x_min":0,"x_max":0,"o":""},"ï":{"ha":159,"x_min":0,"x_max":0,"o":""},"ñ":{"ha":260,"x_min":0,"x_max":0,"o":""},"ó":{"ha":248,"x_min":0,"x_max":0,"o":""},"ò":{"ha":248,"x_min":0,"x_max":0,"o":""},"ô":{"ha":248,"x_min":0,"x_max":0,"o":""},"ö":{"ha":248,"x_min":0,"x_max":0,"o":""},"õ":{"ha":248,"x_min":0,"x_max":0,"o":""},"ú":{"ha":232,"x_min":0,"x_max":0,"o":""},"ù":{"ha":232,"x_min":0,"x_max":0,"o":""},"û":{"ha":232,"x_min":0,"x_max":0,"o":""},"ü":{"ha":232,"x_min":0,"x_max":0,"o":""},"†":{"ha":306,"x_min":0,"x_max":0,"o":""},"°":{"ha":193,"x_min":0,"x_max":0,"o":""},"¢":{"ha":431,"x_min":0,"x_max":0,"o":""},"£":{"ha":431,"x_min":0,"x_max":0,"o":""},"§":{"ha":285,"x_min":0,"x_max":0,"o":""},"•":{"ha":262,"x_min":0,"x_max":0,"o":""},"¶":{"ha":305,"x_min":0,"x_max":0,"o":""},"ß":{"ha":338,"x_min":0,"x_max":0,"o":""},"®":{"ha":507,"x_min":0,"x_max":0,"o":""},"©":{"ha":484,"x_min":0,"x_max":0,"o":""},"™":{"ha":462,"x_min":0,"x_max":0,"o":""},"´":{"ha":313,"x_min":0,"x_max":0,"o":""},"¨":{"ha":252,"x_min":0,"x_max":0,"o":""},"Æ":{"ha":555,"x_min":0,"x_max":0,"o":""},"Ø":{"ha":472,"x_min":0,"x_max":0,"o":""},"±":{"ha":431,"x_min":0,"x_max":0,"o":""},"¥":{"ha":431,"x_min":0,"x_max":0,"o":""},"µ":{"ha":285,"x_min":0,"x_max":0,"o":""},"μ":{"ha":285,"x_min":0,"x_max":0,"o":""},"ª":{"ha":273,"x_min":0,"x_max":0,"o":""},"º":{"ha":273,"x_min":0,"x_max":0,"o":""},"æ":{"ha":507,"x_min":0,"x_max":0,"o":""},"ø":{"ha":248,"x_min":0,"x_max":0,"o":""},"¿":{"ha":385,"x_min":0,"x_max":0,"o":""},"¡":{"ha":210,"x_min":0,"x_max":0,"o":""},"¬":{"ha":946,"x_min":0,"x_max":0,"o":""},"ƒ":{"ha":391,"x_min":0,"x_max":0,"o":""},"«":{"ha":366,"x_min":0,"x_max":0,"o":""},"»":{"ha":366,"x_min":0,"x_max":0,"o":""},"…":{"ha":537,"x_min":0,"x_max":0,"o":""}," ":{"ha":338,"x_min":0,"x_max":0,"o":""},"À":{"ha":413,"x_min":0,"x_max":0,"o":""},"Ã":{"ha":413,"x_min":0,"x_max":0,"o":""},"Õ":{"ha":472,"x_min":0,"x_max":0,"o":""},"Œ":{"ha":647,"x_min":0,"x_max":0,"o":""},"œ":{"ha":513,"x_min":0,"x_max":0,"o":""},"–":{"ha":464,"x_min":0,"x_max":0,"o":""},"—":{"ha":606,"x_min":0,"x_max":0,"o":""},"“":{"ha":232,"x_min":0,"x_max":0,"o":""},"”":{"ha":203,"x_min":0,"x_max":0,"o":""},"‘":{"ha":161,"x_min":0,"x_max":0,"o":""},"’":{"ha":163,"x_min":0,"x_max":0,"o":""},"÷":{"ha":431,"x_min":0,"x_max":0,"o":""},"ÿ":{"ha":267,"x_min":0,"x_max":0,"o":""},"Ÿ":{"ha":357,"x_min":0,"x_max":0,"o":""},"¤":{"ha":285,"x_min":0,"x_max":0,"o":""},"‹":{"ha":218,"x_min":0,"x_max":0,"o":""},"›":{"ha":218,"x_min":0,"x_max":0,"o":""},"‡":{"ha":228,"x_min":0,"x_max":0,"o":""},"·":{"ha":140,"x_min":0,"x_max":0,"o":""},"∙":{"ha":140,"x_min":0,"x_max":0,"o":""},"‚":{"ha":159,"x_min":0,"x_max":0,"o":""},"„":{"ha":273,"x_min":0,"x_max":0,"o":""},"‰":{"ha":494,"x_min":0,"x_max":0,"o":""},"Â":{"ha":413,"x_min":0,"x_max":0,"o":""},"Ê":{"ha":439,"x_min":0,"x_max":0,"o":""},"Á":{"ha":413,"x_min":0,"x_max":0,"o":""},"Ë":{"ha":439,"x_min":0,"x_max":0,"o":""},"È":{"ha":439,"x_min":0,"x_max":0,"o":""},"Í":{"ha":159,"x_min":0,"x_max":0,"o":""},"Î":{"ha":159,"x_min":0,"x_max":0,"o":""},"Ï":{"ha":159,"x_min":0,"x_max":0,"o":""},"Ì":{"ha":159,"x_min":0,"x_max":0,"o":""},"Ó":{"ha":472,"x_min":0,"x_max":0,"o":""},"Ô":{"ha":472,"x_min":0,"x_max":0,"o":""},"Ò":{"ha":472,"x_min":0,"x_max":0,"o":""},"Ú":{"ha":448,"x_min":0,"x_max":0,"o":""},"Û":{"ha":448,"x_min":0,"x_max":0,"o":""},"Ù":{"ha":448,"x_min":0,"x_max":0,"o":""},"ˆ":{"ha":244,"x_min":0,"x_max":0,"o":""},"˜":{"ha":328,"x_min":0,"x_max":0,"o":""},"¯":{"ha":244,"x_min":0,"x_max":0,"o":""},"ˉ":{"ha":244,"x_min":0,"x_max":0,"o":""},"¸":{"ha":218,"x_min":0,"x_max":0,"o":""},"Š":{"ha":421,"x_min":0,"x_max":0,"o":""},"š":{"ha":232,"x_min":0,"x_max":0,"o":""},"¦":{"ha":136,"x_min":0,"x_max":0,"o":""},"Ð":{"ha":450,"x_min":0,"x_max":0,"o":""},"ð":{"ha":328,"x_min":0,"x_max":0,"o":""},"Ý":{"ha":357,"x_min":0,"x_max":0,"o":""},"ý":{"ha":267,"x_min":0,"x_max":0,"o":""},"Þ":{"ha":391,"x_min":0,"x_max":0,"o":""},"þ":{"ha":236,"x_min":0,"x_max":0,"o":""},"­":{"ha":431,"x_min":0,"x_max":0,"o":""},"−":{"ha":431,"x_min":0,"x_max":0,"o":""},"×":{"ha":431,"x_min":0,"x_max":0,"o":""},"¹":{"ha":203,"x_min":0,"x_max":0,"o":""},"²":{"ha":203,"x_min":0,"x_max":0,"o":""},"³":{"ha":203,"x_min":0,"x_max":0,"o":""},"½":{"ha":533,"x_min":0,"x_max":0,"o":""},"¼":{"ha":533,"x_min":0,"x_max":0,"o":""},"¾":{"ha":533,"x_min":0,"x_max":0,"o":""},"Ł":{"ha":387,"x_min":0,"x_max":0,"o":""},"ł":{"ha":144,"x_min":0,"x_max":0,"o":""},"Ž":{"ha":468,"x_min":0,"x_max":0,"o":""},"ž":{"ha":313,"x_min":0,"x_max":0,"o":""},"≠":{"ha":431,"x_min":0,"x_max":0,"o":""},"∞":{"ha":454,"x_min":0,"x_max":0,"o":""},"≤":{"ha":232,"x_min":0,"x_max":0,"o":""},"≥":{"ha":232,"x_min":0,"x_max":0,"o":""},"∂":{"ha":328,"x_min":0,"x_max":0,"o":""},"∑":{"ha":948,"x_min":0,"x_max":0,"o":""},"∏":{"ha":541,"x_min":0,"x_max":0,"o":""},"π":{"ha":541,"x_min":0,"x_max":0,"o":""},"∫":{"ha":948,"x_min":0,"x_max":0,"o":""},"Ω":{"ha":979,"x_min":0,"x_max":0,"o":""},"Ω":{"ha":979,"x_min":0,"x_max":0,"o":""},"√":{"ha":555,"x_min":0,"x_max":0,"o":""},"≈":{"ha":431,"x_min":0,"x_max":0,"o":""},"⋲":{"ha":431,"x_min":0,"x_max":0,"o":""},"Δ":{"ha":248,"x_min":0,"x_max":0,"o":""},"∆":{"ha":248,"x_min":0,"x_max":0,"o":""},"◊":{"ha":165,"x_min":0,"x_max":0,"o":""},"⁄":{"ha":159,"x_min":0,"x_max":0,"o":""},"":{"ha":356,"x_min":0,"x_max":0,"o":""},"":{"ha":326,"x_min":0,"x_max":0,"o":""},"":{"ha":399,"x_min":0,"x_max":0,"o":""},"ı":{"ha":159,"x_min":0,"x_max":0,"o":""},"˘":{"ha":244,"x_min":0,"x_max":0,"o":""},"˙":{"ha":124,"x_min":0,"x_max":0,"o":""},"˚":{"ha":244,"x_min":0,"x_max":0,"o":""},"˝":{"ha":317,"x_min":0,"x_max":0,"o":""},"˛":{"ha":183,"x_min":0,"x_max":0,"o":""},"ˇ":{"ha":244,"x_min":0,"x_max":0,"o":""}}}
